<svg width="32" height="32" viewBox="0 0 32 32" fill="none" xmlns="http://www.w3.org/2000/svg">
<rect width="32" height="32" fill="white"/>
<path fill-rule="evenodd" clip-rule="evenodd" d="M15.7956 4.49537H24.2263C26.4364 4.49537 28.2295 6.29515 28.2295 8.5134V24.9818C28.2295 27.2 26.4364 28.9998 24.2263 28.9998H7.81503C7.60104 28.9998 7.39073 28.9776 7.18411 28.9442L15.8104 25.7483C25.1044 22.2191 25.7686 10.2317 14.7847 8.5171C15.7661 7.38391 16.4339 5.86187 15.7956 4.49537ZM14.4083 22.5821C21.6362 19.5491 17.6736 9.75029 10.7519 12.1315L4 14.7867V26.589L14.4083 22.5821ZM9.24659 9.41699C14.7109 7.45797 11.8072 0.621767 7.05129 2.46228L4 3.81397V11.5649L9.24659 9.41699Z" fill="#191919"/>
<path d="M4 26.6321V14.787L9.52772 12.8128C11.5019 12.0231 15.9241 10.6807 17.8193 14.787C19.7145 18.8933 17.0296 21.4992 15.0554 22.2889L4 26.6321Z" fill="#F4BE00" stroke="#F4BE00" stroke-width="0.599999"/>
<path d="M4 11.6283V3.73154C4 3.73154 6.76386 2.54692 7.94837 2.15219C9.13288 1.75747 10.9491 1.99426 11.8967 4.52122C12.8443 7.04817 10.7122 8.73281 9.52772 9.25926L4 11.6283Z" fill="#F4BE00" stroke="#F4BE00" stroke-width="0.599999"/>
</svg>
