<svg width="131" height="47" viewBox="0 0 131 47" fill="none" xmlns="http://www.w3.org/2000/svg">
<path fill-rule="evenodd" clip-rule="evenodd" d="M21.0953 5.25194H35.458C39.2231 5.25194 42.278 8.31809 42.278 12.0971V40.153C42.278 43.9321 39.2231 46.9982 35.458 46.9982H7.49938C7.13481 46.9982 6.77653 46.9604 6.42453 46.9036L21.1204 41.459C36.954 35.4466 38.0854 15.0245 19.373 12.1035C21.045 10.1729 22.1827 7.57994 21.0953 5.25194ZM18.7319 36.0648C31.0455 30.8978 24.2947 14.2043 12.5028 18.261L1 22.7845V42.8911L18.7319 36.0648ZM9.93821 13.6365C19.2473 10.2991 14.3005 -1.34722 6.19824 1.78833L1 4.09109V17.2957L9.93821 13.6365Z" fill="#191919"/>
<path d="M88.8962 10.8937C88.5987 9.74151 88.1227 8.90937 87.4682 8.39728C86.8137 7.86691 85.9881 7.60172 84.9915 7.60172C84.0841 7.60172 83.333 7.83033 82.738 8.28755C82.143 8.74477 81.667 9.3483 81.31 10.0981C80.9678 10.8297 80.7224 11.6618 80.5737 12.5946C80.4398 13.5273 80.3729 14.46 80.3729 15.3928C80.3729 17.9715 80.7001 19.8827 81.3546 21.1263C82.0091 22.3517 83.0578 22.9644 84.5006 22.9644C84.7535 22.9644 84.9766 22.9461 85.17 22.9095C85.3634 22.8546 85.5642 22.7906 85.7725 22.7175C85.7725 21.6201 85.7576 20.5411 85.7278 19.4803C85.6981 18.4196 85.6683 17.3405 85.6386 16.2432C86.0848 16.3164 86.5236 16.3804 86.955 16.4352C87.3864 16.4718 87.7954 16.4901 88.1822 16.4901C88.5987 16.4901 89.0226 16.481 89.454 16.4627C89.9002 16.4261 90.3242 16.3529 90.7258 16.2432C90.6812 17.4503 90.644 18.5567 90.6142 19.5626C90.5994 20.5502 90.5919 21.4921 90.5919 22.3883C90.5919 22.6443 90.5994 22.9369 90.6142 23.2661C90.6291 23.5953 90.644 23.8605 90.6589 24.0617C90.2275 24.208 89.7515 24.3543 89.2309 24.5006C88.7103 24.6469 88.1748 24.775 87.6244 24.8847C87.074 24.9944 86.5162 25.0767 85.951 25.1316C85.4006 25.2047 84.8725 25.2413 84.3668 25.2413C83.1173 25.2413 81.9273 25.0401 80.7968 24.6378C79.6812 24.2171 78.692 23.5862 77.8292 22.7449C76.9814 21.9036 76.3046 20.8611 75.7988 19.6175C75.3079 18.3556 75.0625 16.9016 75.0625 15.2556C75.0625 13.7193 75.2931 12.3294 75.7542 11.0857C76.2302 9.8421 76.8847 8.78135 77.7177 7.90349C78.5507 7.02562 79.5324 6.34893 80.6629 5.87342C81.8083 5.39791 83.0578 5.16016 84.4114 5.16016C85.4824 5.16016 86.5608 5.29732 87.6467 5.57166C88.7326 5.84599 89.7664 6.24834 90.7481 6.77872C90.4952 7.51027 90.287 8.18696 90.1234 8.80878C89.9746 9.4306 89.8408 10.1256 89.7218 10.8937H88.8962Z" fill="#191919"/>
<path d="M64.4963 23.0467C65.0318 23.0467 65.4929 22.9186 65.8796 22.6626C66.2664 22.4065 66.5936 22.0773 66.8614 21.675C67.1291 21.2543 67.3448 20.7697 67.5084 20.221C67.6721 19.6724 67.7985 19.1146 67.8878 18.5476C67.977 17.9624 68.0365 17.3771 68.0663 16.7919C68.096 16.2066 68.1109 15.6671 68.1109 15.1733C68.1109 14.3869 68.0663 13.5456 67.977 12.6494C67.9026 11.735 67.7316 10.8937 67.4638 10.1256C67.2109 9.33916 66.8316 8.68991 66.3259 8.17782C65.835 7.66573 65.1731 7.40969 64.3401 7.40969C63.5517 7.40969 62.9121 7.65658 62.4212 8.15038C61.9452 8.62589 61.5733 9.22943 61.3056 9.96098C61.0378 10.6925 60.8594 11.4972 60.7701 12.3751C60.6809 13.2347 60.6362 14.0394 60.6362 14.7892C60.6362 15.3562 60.6437 15.9597 60.6585 16.5998C60.6883 17.2217 60.7478 17.8435 60.837 18.4653C60.9263 19.0688 61.0527 19.6449 61.2163 20.1936C61.38 20.7423 61.6031 21.2361 61.8857 21.675C62.1832 22.0956 62.5402 22.434 62.9567 22.69C63.3881 22.9278 63.9013 23.0467 64.4963 23.0467ZM64.3178 5.16016C65.597 5.16016 66.7945 5.37962 67.9101 5.81856C69.0257 6.2392 69.9926 6.87016 70.8107 7.71145C71.6437 8.55274 72.2907 9.5952 72.7519 10.8388C73.2279 12.0642 73.4659 13.4907 73.4659 15.1184C73.4659 16.8376 73.2279 18.3373 72.7519 19.6175C72.2759 20.8794 71.6214 21.931 70.7884 22.7723C69.9703 23.6136 68.9959 24.2354 67.8654 24.6378C66.735 25.0219 65.5226 25.2139 64.2285 25.2139C63.0088 25.2139 61.856 25.0036 60.7701 24.5829C59.6842 24.144 58.7322 23.5039 57.9141 22.6626C57.096 21.803 56.4489 20.7514 55.9729 19.5078C55.5118 18.2458 55.2812 16.8193 55.2812 15.2282C55.2812 13.5822 55.5118 12.1374 55.9729 10.8937C56.4341 9.63178 57.0662 8.58017 57.8695 7.73888C58.6876 6.87931 59.647 6.2392 60.7478 5.81856C61.8485 5.37962 63.0385 5.16016 64.3178 5.16016Z" fill="#191919"/>
<path d="M49.8405 22.2777C49.9892 22.2777 50.2867 22.2777 50.733 22.2777C51.1792 22.2594 51.6701 22.2411 52.2056 22.2229C52.756 22.1863 53.3063 22.1497 53.8567 22.1131C54.4071 22.0765 54.8608 22.0217 55.2178 21.9485C55.188 22.1497 55.1583 22.3875 55.1285 22.6618C55.1136 22.9178 55.1062 23.2105 55.1062 23.5397C55.1062 23.7957 55.1136 24.0517 55.1285 24.3078C55.1583 24.5455 55.188 24.7924 55.2178 25.0485C54.2806 24.957 53.4402 24.893 52.6965 24.8565C51.9676 24.8199 51.2387 24.8016 50.5099 24.8016C49.7066 24.8016 48.7844 24.8199 47.7431 24.8565C46.7019 24.893 45.6234 24.957 44.5078 25.0485C44.6417 24.2438 44.7309 23.3933 44.7756 22.4972C44.8202 21.601 44.8425 20.7597 44.8425 19.9733V18.5468C44.8425 17.6689 44.8351 16.8734 44.8202 16.1601C44.8202 15.4285 44.8127 14.7427 44.7979 14.1026C44.7979 13.4625 44.7904 12.8498 44.7756 12.2646C44.7607 11.661 44.7458 11.0392 44.7309 10.3991C44.7012 9.55782 44.6789 8.69824 44.664 7.82038C44.6491 6.92423 44.6045 6.11952 44.5301 5.40625C45.4672 5.57085 46.4192 5.65315 47.3861 5.65315C47.8472 5.65315 48.286 5.63486 48.7025 5.59828C49.1339 5.5617 49.5727 5.49769 50.019 5.40625C49.9744 5.88176 49.9372 6.52187 49.9074 7.32658C49.8925 8.113 49.8702 8.95429 49.8405 9.85044C49.8256 10.7466 49.8107 11.6336 49.7959 12.5115C49.7959 13.3893 49.7959 14.1483 49.7959 14.7884V16.0504C49.7959 16.3064 49.7959 16.7362 49.7959 17.3397C49.8107 17.925 49.8182 18.5468 49.8182 19.2052C49.8182 19.8636 49.8182 20.4854 49.8182 21.0707C49.833 21.6559 49.8405 22.0583 49.8405 22.2777Z" fill="#191919"/>
<path d="M120.7 41.4302C120.775 41.9057 120.916 42.3355 121.124 42.7195C121.347 43.1036 121.615 43.4328 121.927 43.7071C122.24 43.9632 122.589 44.1644 122.976 44.3107C123.378 44.457 123.794 44.5301 124.226 44.5301C124.493 44.5301 124.761 44.4936 125.029 44.4204C125.297 44.3472 125.535 44.2375 125.743 44.0912C125.966 43.9266 126.145 43.7163 126.278 43.4602C126.412 43.2042 126.479 42.9024 126.479 42.5549C126.479 42.2257 126.42 41.9331 126.301 41.6771C126.182 41.421 125.973 41.165 125.676 40.9089C125.378 40.6529 124.984 40.3877 124.493 40.1134C124.003 39.8208 123.385 39.4824 122.641 39.0983C121.645 38.5863 120.834 37.8547 120.209 36.9037C119.585 35.9344 119.272 34.7547 119.272 33.3648C119.272 32.2675 119.429 31.3164 119.741 30.5117C120.053 29.707 120.477 29.0395 121.013 28.5091C121.548 27.9787 122.173 27.5855 122.887 27.3295C123.616 27.0551 124.389 26.918 125.207 26.918C126.011 26.918 126.806 27.0277 127.595 27.2472C128.383 27.4666 129.157 27.7501 129.915 28.0976C129.692 28.7194 129.499 29.3961 129.335 30.1277C129.186 30.8592 129.09 31.5451 129.045 32.1852H128.153C128.034 31.3622 127.721 30.6672 127.216 30.1002C126.725 29.5333 126.078 29.2498 125.274 29.2498C125.036 29.2498 124.776 29.2864 124.493 29.3595C124.226 29.4327 123.973 29.5516 123.735 29.7162C123.512 29.8625 123.326 30.0637 123.177 30.3197C123.028 30.5575 122.954 30.8592 122.954 31.225C122.954 31.5725 123.028 31.8742 123.177 32.1303C123.326 32.368 123.527 32.5875 123.779 32.7887C124.032 32.9899 124.337 33.1819 124.694 33.3648C125.051 33.5477 125.431 33.7489 125.832 33.9683L127.55 34.9011C128.547 35.4314 129.261 36.1447 129.692 37.0409C130.124 37.937 130.339 39.0435 130.339 40.3603C130.339 41.5125 130.183 42.5092 129.871 43.3505C129.558 44.1918 129.127 44.8868 128.577 45.4354C128.026 45.9841 127.372 46.3865 126.613 46.6425C125.854 46.8803 125.036 46.9991 124.159 46.9991C123.668 46.9991 123.222 46.9717 122.82 46.9168C122.418 46.8803 122.024 46.8254 121.637 46.7522C121.266 46.6791 120.886 46.5693 120.499 46.423C120.113 46.2767 119.696 46.103 119.25 45.9018C119.309 45.5177 119.362 45.1702 119.406 44.8593C119.466 44.5301 119.518 44.2009 119.562 43.8717C119.607 43.5243 119.644 43.1585 119.674 42.7744C119.719 42.3903 119.756 41.9423 119.785 41.4302H120.7Z" fill="#191919"/>
<path d="M107.474 41.4302C107.548 41.9057 107.689 42.3355 107.898 42.7195C108.121 43.1036 108.389 43.4328 108.701 43.7071C109.013 43.9632 109.363 44.1644 109.75 44.3107C110.151 44.457 110.568 44.5301 110.999 44.5301C111.267 44.5301 111.535 44.4936 111.802 44.4204C112.07 44.3472 112.308 44.2375 112.516 44.0912C112.739 43.9266 112.918 43.7163 113.052 43.4602C113.186 43.2042 113.253 42.9024 113.253 42.5549C113.253 42.2257 113.193 41.9331 113.074 41.6771C112.955 41.421 112.747 41.165 112.449 40.9089C112.152 40.6529 111.758 40.3877 111.267 40.1134C110.776 39.8208 110.159 39.4824 109.415 39.0983C108.418 38.5863 107.608 37.8547 106.983 36.9037C106.358 35.9344 106.046 34.7547 106.046 33.3648C106.046 32.2675 106.202 31.3164 106.514 30.5117C106.827 29.707 107.251 29.0395 107.786 28.5091C108.322 27.9787 108.946 27.5855 109.66 27.3295C110.389 27.0551 111.163 26.918 111.981 26.918C112.784 26.918 113.58 27.0277 114.368 27.2472C115.157 27.4666 115.93 27.7501 116.689 28.0976C116.466 28.7194 116.272 29.3961 116.109 30.1277C115.96 30.8592 115.863 31.5451 115.819 32.1852H114.926C114.807 31.3622 114.495 30.6672 113.989 30.1002C113.498 29.5333 112.851 29.2498 112.048 29.2498C111.81 29.2498 111.549 29.2864 111.267 29.3595C110.999 29.4327 110.746 29.5516 110.508 29.7162C110.285 29.8625 110.099 30.0637 109.95 30.3197C109.802 30.5575 109.727 30.8592 109.727 31.225C109.727 31.5725 109.802 31.8742 109.95 32.1303C110.099 32.368 110.3 32.5875 110.553 32.7887C110.806 32.9899 111.111 33.1819 111.468 33.3648C111.825 33.5477 112.204 33.7489 112.606 33.9683L114.324 34.9011C115.32 35.4314 116.034 36.1447 116.466 37.0409C116.897 37.937 117.113 39.0435 117.113 40.3603C117.113 41.5125 116.957 42.5092 116.644 43.3505C116.332 44.1918 115.9 44.8868 115.35 45.4354C114.8 45.9841 114.145 46.3865 113.387 46.6425C112.628 46.8803 111.81 46.9991 110.932 46.9991C110.441 46.9991 109.995 46.9717 109.593 46.9168C109.192 46.8803 108.798 46.8254 108.411 46.7522C108.039 46.6791 107.66 46.5693 107.273 46.423C106.886 46.2767 106.47 46.103 106.023 45.9018C106.083 45.5177 106.135 45.1702 106.18 44.8593C106.239 44.5301 106.291 44.2009 106.336 43.8717C106.38 43.5243 106.418 43.1585 106.447 42.7744C106.492 42.3903 106.529 41.9423 106.559 41.4302H107.474Z" fill="#191919"/>
<path d="M99.6384 44.0629C99.8467 44.0629 100.129 44.0629 100.486 44.0629C100.858 44.0446 101.245 44.0263 101.647 44.008C102.048 43.9897 102.435 43.9714 102.807 43.9531C103.194 43.9166 103.506 43.8891 103.744 43.8708C103.714 44.1269 103.684 44.3921 103.655 44.6664C103.64 44.9225 103.632 45.1785 103.632 45.4345C103.632 45.6723 103.64 45.9101 103.655 46.1478C103.684 46.3856 103.714 46.6142 103.744 46.8336C102.837 46.7422 101.929 46.6782 101.022 46.6416C100.129 46.605 99.2368 46.5867 98.3443 46.5867C97.437 46.5867 96.5296 46.605 95.6222 46.6416C94.7148 46.6782 93.8075 46.7422 92.9001 46.8336C92.9447 46.4496 92.9745 46.0838 92.9893 45.7363C93.0191 45.3888 93.034 44.9865 93.034 44.5292C93.0488 44.0537 93.0563 43.4868 93.0563 42.8284C93.0712 42.1517 93.0786 41.2921 93.0786 40.2497V37.2594C93.0786 35.8146 93.0712 34.6258 93.0563 33.6931C93.0563 32.7421 93.0488 31.9099 93.034 31.1967C93.0191 30.4834 92.9968 29.825 92.967 29.2215C92.9373 28.6179 92.9001 27.9412 92.8555 27.1914C93.629 27.2646 94.4025 27.3286 95.176 27.3834C95.9495 27.42 96.723 27.4383 97.4964 27.4383C97.9278 27.4383 98.4187 27.4383 98.9691 27.4383C99.5343 27.42 100.1 27.4109 100.665 27.4109C101.245 27.3926 101.803 27.3652 102.338 27.3286C102.874 27.292 103.342 27.2463 103.744 27.1914C103.714 27.4475 103.684 27.6944 103.655 27.9321C103.64 28.1516 103.632 28.3893 103.632 28.6454C103.632 28.9014 103.64 29.1575 103.655 29.4135C103.684 29.6695 103.714 29.9256 103.744 30.1816C103.179 30.1451 102.621 30.1085 102.07 30.0719C101.52 30.017 100.97 29.9896 100.419 29.9896H98.0766V35.3665C98.2551 35.3665 98.5228 35.3665 98.8798 35.3665C99.2368 35.3482 99.6533 35.3299 100.129 35.3117C100.62 35.2934 101.156 35.2659 101.736 35.2294C102.316 35.1928 102.918 35.1471 103.543 35.0922C103.513 35.3482 103.484 35.5951 103.454 35.8329C103.439 36.0524 103.432 36.2901 103.432 36.5462C103.432 37.0217 103.469 37.5155 103.543 38.0276C103.097 37.991 102.665 37.9635 102.249 37.9453C101.847 37.9087 101.431 37.8812 101 37.863C100.583 37.8264 100.137 37.8081 99.6608 37.8081C99.1848 37.7898 98.6567 37.7807 98.0766 37.7807V44.0629H99.6384Z" fill="#191919"/>
<path d="M81.4711 36.1895C81.5455 36.2078 81.6124 36.2261 81.6719 36.2444C81.7463 36.2444 81.8207 36.2444 81.895 36.2444H82.2967C83.2189 36.2444 83.8585 35.9335 84.2155 35.3117C84.5874 34.6715 84.7733 33.8211 84.7733 32.7604C84.7733 31.9922 84.6841 31.3887 84.5056 30.9498C84.342 30.5108 84.1337 30.1816 83.8808 29.9622C83.628 29.7244 83.3453 29.5781 83.033 29.5232C82.7355 29.4684 82.4528 29.4409 82.1851 29.4409C82.0661 29.4409 81.9471 29.4501 81.8281 29.4684C81.7091 29.4684 81.5901 29.4775 81.4711 29.4958V36.1895ZM86.8484 38.2745C87.1608 38.9146 87.4955 39.6095 87.8525 40.3594C88.2243 41.0909 88.6036 41.8316 88.9904 42.5815C89.3771 43.3313 89.7639 44.072 90.1506 44.8036C90.5374 45.5351 90.9093 46.2118 91.2662 46.8336C90.7456 46.7605 90.225 46.7056 89.7044 46.669C89.1838 46.6142 88.6631 46.5867 88.1425 46.5867C87.6368 46.5867 87.1608 46.6142 86.7145 46.669C86.2683 46.7056 85.7997 46.7605 85.3088 46.8336C84.7138 45.4071 84.1114 43.9989 83.5015 42.6089C82.9065 41.2007 82.252 39.7833 81.538 38.3568H81.4711C81.4711 39.5638 81.4785 40.9263 81.4934 42.4443C81.5232 43.944 81.5678 45.4071 81.6273 46.8336C81.1959 46.7605 80.7645 46.7056 80.3332 46.669C79.9018 46.6142 79.4555 46.5867 78.9944 46.5867C78.5779 46.5867 78.1391 46.6142 77.678 46.669C77.2317 46.7056 76.7557 46.7605 76.25 46.8336C76.3244 45.9009 76.3839 44.7944 76.4285 43.5142C76.488 42.2157 76.5177 40.908 76.5177 39.5913C76.5177 38.9877 76.5103 38.2379 76.4954 37.3417C76.4954 36.4273 76.488 35.4214 76.4731 34.3241C76.4582 33.2267 76.4359 32.0745 76.4062 30.8675C76.3764 29.6421 76.3393 28.4168 76.2946 27.1914C76.8152 27.2829 77.3284 27.3469 77.8342 27.3834C78.3548 27.42 78.8531 27.4383 79.3291 27.4383C80.0431 27.4383 80.7497 27.4017 81.4488 27.3286C82.1628 27.2371 82.8768 27.1914 83.5908 27.1914C84.3345 27.1914 85.0783 27.2554 85.822 27.3834C86.5806 27.5115 87.2575 27.7675 87.8525 28.1516C88.4623 28.5173 88.9532 29.0477 89.3251 29.7427C89.7118 30.4194 89.9052 31.3247 89.9052 32.4586C89.9052 33.8485 89.5779 34.9276 88.9234 35.6957C88.2838 36.4639 87.4285 36.9851 86.3575 37.2594L86.8484 38.2745Z" fill="#191919"/>
<path d="M68.9463 32.7604C68.9463 32.0471 68.8794 31.4801 68.7455 31.0595C68.6117 30.6206 68.4332 30.2822 68.21 30.0445C67.9869 29.8067 67.7266 29.6513 67.4291 29.5781C67.1465 29.4867 66.8415 29.4409 66.5143 29.4409C66.3804 29.4409 66.2465 29.4501 66.1127 29.4684C65.9937 29.4684 65.8747 29.4775 65.7557 29.4958C65.7557 30.1908 65.7482 30.8309 65.7334 31.4161C65.7334 31.9831 65.7334 32.5318 65.7334 33.0621V34.6258V36.2444C65.8077 36.2627 65.8747 36.281 65.9342 36.2993C65.9937 36.2993 66.0606 36.2993 66.135 36.2993H66.5812C67.0423 36.2993 67.4217 36.2078 67.7192 36.0249C68.0315 35.842 68.277 35.5951 68.4555 35.2842C68.634 34.9733 68.7604 34.5984 68.8348 34.1595C68.9092 33.7205 68.9463 33.2542 68.9463 32.7604ZM74.1005 32.5958C74.1005 33.7114 73.9294 34.6533 73.5873 35.4214C73.2452 36.1712 72.7841 36.7748 72.204 37.232C71.6387 37.6892 70.9842 38.0184 70.2405 38.2196C69.5116 38.4025 68.7455 38.4939 67.9423 38.4939C67.4217 38.4939 66.9828 38.4848 66.6258 38.4665C66.2689 38.4299 65.9714 38.3933 65.7334 38.3568C65.7334 38.9054 65.7334 39.6095 65.7334 40.4691C65.7482 41.3104 65.7631 42.1608 65.778 43.0204C65.7929 43.88 65.8152 44.6664 65.8449 45.3797C65.8747 46.0747 65.9119 46.5593 65.9565 46.8336C65.54 46.7788 65.1235 46.7239 64.707 46.669C64.2905 46.6142 63.874 46.5867 63.4575 46.5867C62.9517 46.5867 62.446 46.6142 61.9402 46.669C61.4494 46.7056 60.9511 46.7605 60.4453 46.8336C60.5048 45.9558 60.5569 45.1511 60.6015 44.4195C60.6461 43.688 60.6759 42.9747 60.6907 42.2797C60.7205 41.5664 60.7354 40.844 60.7354 40.1125C60.7502 39.3626 60.7577 38.5396 60.7577 37.6435C60.7577 36.9668 60.7502 36.1987 60.7354 35.3391C60.7354 34.4612 60.7205 33.5559 60.6907 32.6232C60.6759 31.6905 60.6536 30.7577 60.6238 29.825C60.5941 28.8923 60.5569 28.0144 60.5123 27.1914C61.0031 27.2829 61.5089 27.3469 62.0295 27.3834C62.565 27.42 63.0559 27.4383 63.5021 27.4383C64.2756 27.4383 65.0491 27.4017 65.8226 27.3286C66.611 27.2371 67.3696 27.1914 68.0985 27.1914C68.8125 27.1914 69.5265 27.2737 70.2405 27.4383C70.9693 27.6029 71.6164 27.8864 72.1816 28.2887C72.7469 28.6911 73.208 29.2398 73.565 29.9347C73.922 30.6297 74.1005 31.5167 74.1005 32.5958Z" fill="#191919"/>
<path d="M50.019 41.8408C49.6174 42.6638 49.2232 43.4959 48.8364 44.3372C48.4497 45.1602 48.0629 45.9923 47.6762 46.8336C47.1258 46.669 46.5754 46.5867 46.0251 46.5867C45.7573 46.5867 45.4896 46.6142 45.2218 46.669C44.9689 46.7056 44.7309 46.7605 44.5078 46.8336C45.4003 45.3888 46.2705 43.9349 47.1184 42.4717C47.9662 41.0086 48.7769 39.5364 49.5504 38.055C49.1934 37.2686 48.7992 36.409 48.3679 35.4763C47.9514 34.5435 47.52 33.5925 47.0737 32.6232C46.6424 31.6539 46.211 30.7029 45.7796 29.7701C45.3631 28.8191 44.9764 27.9595 44.6194 27.1914C45.6755 27.356 46.7242 27.4383 47.7654 27.4383C48.2265 27.4383 48.6877 27.42 49.1488 27.3834C49.6099 27.3286 50.0636 27.2646 50.5099 27.1914C50.8371 28.179 51.1941 29.1483 51.5808 30.0993C51.9676 31.0504 52.3767 32.0014 52.808 32.9524C53.284 32.0014 53.76 31.0504 54.236 30.0993C54.712 29.1483 55.1434 28.179 55.5301 27.1914C55.7681 27.2463 56.021 27.3011 56.2888 27.356C56.5565 27.4109 56.8391 27.4383 57.1366 27.4383C57.449 27.4383 57.7316 27.4109 57.9845 27.356C58.2374 27.3011 58.4903 27.2463 58.7431 27.1914C58.3118 27.8498 57.9027 28.4899 57.5159 29.1117C57.1441 29.7153 56.7648 30.3371 56.378 30.9772C56.0061 31.6173 55.612 32.3031 55.1955 33.0347C54.7938 33.7663 54.3476 34.5801 53.8567 35.4763C54.0798 36.0615 54.3922 36.8296 54.7938 37.7807C55.2103 38.7317 55.6566 39.7467 56.1326 40.8257C56.6086 41.9048 57.092 42.9747 57.5829 44.0354C58.0886 45.0962 58.5423 46.0289 58.9439 46.8336C58.7654 46.8153 58.5423 46.7971 58.2746 46.7788C58.0217 46.7422 57.7539 46.7148 57.4713 46.6965C57.1887 46.6599 56.9135 46.6325 56.6458 46.6142C56.3929 46.5959 56.1772 46.5867 55.9987 46.5867C55.5525 46.5867 55.0541 46.6142 54.5038 46.669C53.9534 46.7056 53.4774 46.7605 53.0758 46.8336C52.689 45.7912 52.2874 44.7579 51.8709 43.7337C51.4693 42.7095 51.0453 41.6762 50.5991 40.6337L50.019 41.8408Z" fill="#191919"/>
<path d="M1 42.9634V22.7838L10.4171 19.4206C13.7804 18.0752 21.3141 15.7882 24.5429 22.7838C27.7716 29.7794 23.1976 34.2189 19.8343 35.5642L1 42.9634Z" fill="#F4BE00" stroke="#F4BE00"/>
<path d="M1 17.403V3.9499C1 3.9499 5.70857 1.93175 7.72653 1.25928C9.74449 0.586817 12.8387 0.99022 14.4531 5.2952C16.0674 9.60018 12.4351 12.4702 10.4171 13.367L1 17.403Z" fill="#F4BE00" stroke="#F4BE00"/>
</svg>
