<svg width="86" height="31" viewBox="0 0 86 31" fill="none" xmlns="http://www.w3.org/2000/svg">
<path fill-rule="evenodd" clip-rule="evenodd" d="M14.1056 3.77283H23.4726C25.9281 3.77283 27.9203 5.77249 27.9203 8.23709V26.5344C27.9203 28.999 25.9281 30.9986 23.4726 30.9986H5.23872C5.00095 30.9986 4.76729 30.9739 4.53773 30.9369L14.122 27.3861C24.4482 23.4649 25.1861 10.1462 12.9824 8.2412C14.0728 6.98216 14.8148 5.29109 14.1056 3.77283ZM12.5642 23.8682C20.5948 20.4984 16.1921 9.61134 8.50179 12.257L1 15.2071V28.3201L12.5642 23.8682ZM6.82926 9.24103C12.9004 7.06445 9.6742 -0.530961 4.39015 1.51396L1 3.01576V11.6275L6.82926 9.24103Z" fill="#191919"/>
<path d="M58.3227 7.45021C58.1287 6.69877 57.8183 6.15607 57.3914 5.8221C56.9646 5.47621 56.4262 5.30326 55.7762 5.30326C55.1845 5.30326 54.6946 5.45235 54.3065 5.75054C53.9185 6.04873 53.608 6.44233 53.3752 6.93136C53.1521 7.40846 52.992 7.95116 52.895 8.55946C52.8077 9.16776 52.764 9.77607 52.764 10.3844C52.764 12.0661 52.9775 13.3126 53.4043 14.1236C53.8312 14.9228 54.5151 15.3223 55.4561 15.3223C55.621 15.3223 55.7665 15.3104 55.8926 15.2866C56.0187 15.2508 56.1497 15.209 56.2855 15.1613C56.2855 14.4457 56.2758 13.742 56.2564 13.0502C56.237 12.3584 56.2176 11.6546 56.1982 10.939C56.4892 10.9867 56.7754 11.0285 57.0568 11.0642C57.3381 11.0881 57.6049 11.1 57.8571 11.1C58.1287 11.1 58.4052 11.0941 58.6865 11.0821C58.9776 11.0583 59.254 11.0106 59.516 10.939C59.4869 11.7262 59.4626 12.4478 59.4432 13.1038C59.4335 13.7479 59.4287 14.3622 59.4287 14.9466C59.4287 15.1136 59.4335 15.3045 59.4432 15.5192C59.4529 15.7338 59.4626 15.9068 59.4723 16.038C59.191 16.1334 58.8805 16.2288 58.541 16.3243C58.2015 16.4197 57.8522 16.5032 57.4933 16.5747C57.1344 16.6463 56.7706 16.7 56.4019 16.7358C56.043 16.7835 55.6986 16.8073 55.3688 16.8073C54.5539 16.8073 53.7778 16.6761 53.0405 16.4137C52.3129 16.1394 51.6678 15.7279 51.1052 15.1792C50.5522 14.6306 50.1108 13.9507 49.781 13.1396C49.4608 12.3166 49.3008 11.3684 49.3008 10.2949C49.3008 9.293 49.4511 8.38651 49.7519 7.57544C50.0623 6.76438 50.4892 6.07258 51.0324 5.50006C51.5757 4.92754 52.2159 4.48622 52.9532 4.17611C53.7002 3.86599 54.5151 3.71094 55.3979 3.71094C56.0964 3.71094 56.7997 3.80039 57.5078 3.97931C58.216 4.15822 58.8902 4.42062 59.5305 4.76652C59.3656 5.24362 59.2298 5.68494 59.1231 6.09047C59.0261 6.49601 58.9387 6.94925 58.8611 7.45021H58.3227Z" fill="#191919"/>
<path d="M42.4121 15.376C42.7614 15.376 43.0621 15.2925 43.3143 15.1255C43.5666 14.9586 43.78 14.7439 43.9546 14.4815C44.1292 14.2071 44.2699 13.8911 44.3766 13.5332C44.4833 13.1754 44.5658 12.8116 44.624 12.4419C44.6822 12.0602 44.721 11.6785 44.7404 11.2968C44.7598 10.9151 44.7695 10.5633 44.7695 10.2412C44.7695 9.72836 44.7404 9.17969 44.6822 8.59524C44.6337 7.99887 44.5221 7.45021 44.3475 6.94925C44.1826 6.43637 43.9352 6.01294 43.6054 5.67897C43.2852 5.345 42.8535 5.17802 42.3103 5.17802C41.7961 5.17802 41.379 5.33904 41.0588 5.66108C40.7484 5.9712 40.5059 6.3648 40.3313 6.8419C40.1566 7.319 40.0402 7.84381 39.982 8.41633C39.9238 8.97692 39.8947 9.50173 39.8947 9.99076C39.8947 10.3605 39.8996 10.7541 39.9093 11.1716C39.9287 11.5771 39.9675 11.9827 40.0257 12.3882C40.0839 12.7818 40.1663 13.1575 40.2731 13.5153C40.3798 13.8732 40.5253 14.1952 40.7096 14.4815C40.9036 14.7558 41.1364 14.9765 41.4081 15.1434C41.6894 15.2985 42.0241 15.376 42.4121 15.376ZM42.2957 3.71094C43.13 3.71094 43.9109 3.85407 44.6385 4.14033C45.3661 4.41466 45.9967 4.82616 46.5302 5.37482C47.0735 5.92349 47.4955 6.60335 47.7962 7.41442C48.1066 8.21356 48.2618 9.14391 48.2618 10.2055C48.2618 11.3266 48.1066 12.3047 47.7962 13.1396C47.4858 13.9626 47.0589 14.6484 46.5157 15.1971C45.9821 15.7458 45.3467 16.1513 44.6094 16.4137C43.8721 16.6642 43.0815 16.7894 42.2375 16.7894C41.442 16.7894 40.6902 16.6523 39.982 16.3779C39.2738 16.0917 38.653 15.6742 38.1194 15.1255C37.5859 14.565 37.1639 13.8791 36.8534 13.0681C36.5527 12.2451 36.4023 11.3147 36.4023 10.277C36.4023 9.20355 36.5527 8.26128 36.8534 7.45021C37.1542 6.62721 37.5665 5.94138 38.0903 5.39271C38.6239 4.83212 39.2496 4.41466 39.9675 4.14033C40.6853 3.85407 41.4614 3.71094 42.2957 3.71094Z" fill="#191919"/>
<path d="M32.8528 14.8742C32.9498 14.8742 33.1438 14.8742 33.4349 14.8742C33.7259 14.8623 34.046 14.8504 34.3953 14.8384C34.7542 14.8146 35.1132 14.7907 35.4721 14.7669C35.831 14.743 36.1269 14.7072 36.3597 14.6595C36.3403 14.7907 36.3209 14.9458 36.3015 15.1247C36.2918 15.2917 36.287 15.4825 36.287 15.6972C36.287 15.8642 36.2918 16.0312 36.3015 16.1982C36.3209 16.3532 36.3403 16.5142 36.3597 16.6812C35.7486 16.6216 35.2005 16.5798 34.7154 16.556C34.2401 16.5321 33.7647 16.5202 33.2894 16.5202C32.7655 16.5202 32.164 16.5321 31.485 16.556C30.8059 16.5798 30.1026 16.6216 29.375 16.6812C29.4623 16.1564 29.5205 15.6018 29.5496 15.0173C29.5787 14.4329 29.5933 13.8842 29.5933 13.3713V12.441C29.5933 11.8685 29.5884 11.3496 29.5787 10.8845C29.5787 10.4074 29.5739 9.96008 29.5642 9.54262C29.5642 9.12515 29.5593 8.72558 29.5496 8.3439C29.5399 7.9503 29.5302 7.54476 29.5205 7.1273C29.5011 6.57863 29.4866 6.01804 29.4769 5.44552C29.4672 4.86108 29.4381 4.33627 29.3896 3.87109C30.0007 3.97844 30.6216 4.03212 31.2521 4.03212C31.5529 4.03212 31.8391 4.02019 32.1107 3.99633C32.392 3.97248 32.6782 3.93073 32.9692 3.87109C32.9401 4.18121 32.9159 4.59867 32.8965 5.12348C32.8868 5.63636 32.8722 6.18503 32.8528 6.76947C32.8431 7.35392 32.8334 7.9324 32.8237 8.50492C32.8237 9.07744 32.8237 9.57243 32.8237 9.9899V10.8129C32.8237 10.9799 32.8237 11.2602 32.8237 11.6538C32.8334 12.0355 32.8383 12.441 32.8383 12.8704C32.8383 13.2998 32.8383 13.7053 32.8383 14.087C32.848 14.4687 32.8528 14.7311 32.8528 14.8742Z" fill="#191919"/>
<path d="M79.0669 27.3668C79.1154 27.6769 79.2076 27.9572 79.3434 28.2077C79.4889 28.4582 79.6636 28.6729 79.8673 28.8518C80.071 29.0188 80.299 29.15 80.5512 29.2454C80.8131 29.3408 81.0848 29.3885 81.3661 29.3885C81.5407 29.3885 81.7153 29.3647 81.8899 29.317C82.0646 29.2692 82.2198 29.1977 82.3556 29.1023C82.5011 28.9949 82.6175 28.8577 82.7048 28.6908C82.7921 28.5238 82.8358 28.327 82.8358 28.1003C82.8358 27.8857 82.797 27.6948 82.7194 27.5278C82.6418 27.3608 82.506 27.1939 82.3119 27.0269C82.1179 26.8599 81.8608 26.6869 81.5407 26.508C81.2206 26.3172 80.818 26.0965 80.3329 25.8461C79.683 25.5121 79.1543 25.035 78.7468 24.4148C78.3394 23.7826 78.1356 23.0133 78.1356 22.1068C78.1356 21.3911 78.2375 20.7709 78.4412 20.2461C78.645 19.7213 78.9214 19.2859 79.2707 18.94C79.6199 18.5941 80.0273 18.3377 80.493 18.1707C80.9683 17.9918 81.4728 17.9023 82.0064 17.9023C82.5302 17.9023 83.0492 17.9739 83.5634 18.117C84.0775 18.2602 84.582 18.445 85.0767 18.6717C84.9312 19.0772 84.8051 19.5185 84.6984 19.9956C84.6014 20.4727 84.5383 20.92 84.5092 21.3375H83.9272C83.8496 20.8007 83.6458 20.3475 83.316 19.9777C82.9959 19.608 82.5739 19.4231 82.05 19.4231C81.8948 19.4231 81.725 19.447 81.5407 19.4947C81.3661 19.5424 81.2012 19.6199 81.046 19.7272C80.9004 19.8227 80.7792 19.9539 80.6822 20.1209C80.5852 20.2759 80.5366 20.4727 80.5366 20.7113C80.5366 20.9379 80.5852 21.1347 80.6822 21.3017C80.7792 21.4567 80.9101 21.5999 81.0751 21.7311C81.24 21.8623 81.4388 21.9875 81.6717 22.1068C81.9045 22.2261 82.1519 22.3573 82.4138 22.5004L83.5343 23.1087C84.1842 23.4546 84.6499 23.9198 84.9312 24.5042C85.2125 25.0887 85.3532 25.8103 85.3532 26.669C85.3532 27.4205 85.2513 28.0705 85.0476 28.6192C84.8439 29.1679 84.5626 29.6211 84.2036 29.9789C83.8447 30.3368 83.4179 30.5992 82.9231 30.7661C82.4283 30.9212 81.8948 30.9987 81.3224 30.9987C81.0023 30.9987 80.7113 30.9808 80.4493 30.9451C80.1874 30.9212 79.9303 30.8854 79.6781 30.8377C79.4356 30.79 79.1882 30.7184 78.936 30.623C78.6838 30.5276 78.4121 30.4143 78.1211 30.2831C78.1599 30.0326 78.1939 29.806 78.223 29.6032C78.2618 29.3885 78.2957 29.1738 78.3248 28.9591C78.3539 28.7325 78.3782 28.494 78.3976 28.2435C78.4267 27.993 78.4509 27.7008 78.4703 27.3668H79.0669Z" fill="#191919"/>
<path d="M70.438 27.3668C70.4865 27.6769 70.5787 27.9572 70.7145 28.2077C70.86 28.4582 71.0346 28.6729 71.2384 28.8518C71.4421 29.0188 71.6701 29.15 71.9223 29.2454C72.1842 29.3408 72.4558 29.3885 72.7372 29.3885C72.9118 29.3885 73.0864 29.3647 73.261 29.317C73.4357 29.2692 73.5909 29.1977 73.7267 29.1023C73.8722 28.9949 73.9886 28.8577 74.0759 28.6908C74.1632 28.5238 74.2069 28.327 74.2069 28.1003C74.2069 27.8857 74.1681 27.6948 74.0905 27.5278C74.0129 27.3608 73.877 27.1939 73.683 27.0269C73.489 26.8599 73.2319 26.6869 72.9118 26.508C72.5917 26.3172 72.1891 26.0965 71.704 25.8461C71.0541 25.5121 70.5253 25.035 70.1179 24.4148C69.7105 23.7826 69.5067 23.0133 69.5067 22.1068C69.5067 21.3911 69.6086 20.7709 69.8123 20.2461C70.016 19.7213 70.2925 19.2859 70.6418 18.94C70.991 18.5941 71.3984 18.3377 71.8641 18.1707C72.3394 17.9918 72.8439 17.9023 73.3774 17.9023C73.9013 17.9023 74.4203 17.9739 74.9345 18.117C75.4486 18.2602 75.9531 18.445 76.4478 18.6717C76.3023 19.0772 76.1762 19.5185 76.0695 19.9956C75.9725 20.4727 75.9094 20.92 75.8803 21.3375H75.2983C75.2206 20.8007 75.0169 20.3475 74.6871 19.9777C74.367 19.608 73.945 19.4231 73.4211 19.4231C73.2659 19.4231 73.0961 19.447 72.9118 19.4947C72.7372 19.5424 72.5723 19.6199 72.417 19.7272C72.2715 19.8227 72.1503 19.9539 72.0533 20.1209C71.9562 20.2759 71.9077 20.4727 71.9077 20.7113C71.9077 20.9379 71.9562 21.1347 72.0533 21.3017C72.1503 21.4567 72.2812 21.5999 72.4462 21.7311C72.6111 21.8623 72.8099 21.9875 73.0428 22.1068C73.2756 22.2261 73.523 22.3573 73.7849 22.5004L74.9054 23.1087C75.5553 23.4546 76.021 23.9198 76.3023 24.5042C76.5836 25.0887 76.7243 25.8103 76.7243 26.669C76.7243 27.4205 76.6224 28.0705 76.4187 28.6192C76.215 29.1679 75.9337 29.6211 75.5747 29.9789C75.2158 30.3368 74.7889 30.5992 74.2942 30.7661C73.7994 30.9212 73.2659 30.9987 72.6935 30.9987C72.3734 30.9987 72.0824 30.9808 71.8204 30.9451C71.5585 30.9212 71.3014 30.8854 71.0492 30.8377C70.8067 30.79 70.5593 30.7184 70.3071 30.623C70.0548 30.5276 69.7832 30.4143 69.4922 30.2831C69.531 30.0326 69.5649 29.806 69.594 29.6032C69.6329 29.3885 69.6668 29.1738 69.6959 28.9591C69.725 28.7325 69.7493 28.494 69.7687 28.2435C69.7978 27.993 69.822 27.7008 69.8414 27.3668H70.438Z" fill="#191919"/>
<path d="M65.3299 29.0851C65.4657 29.0851 65.6501 29.0851 65.8829 29.0851C66.1254 29.0732 66.3776 29.0613 66.6396 29.0494C66.9015 29.0374 67.1537 29.0255 67.3962 29.0136C67.6485 28.9897 67.8522 28.9718 68.0074 28.9599C67.988 29.1269 67.9686 29.2998 67.9492 29.4787C67.9395 29.6457 67.9346 29.8127 67.9346 29.9797C67.9346 30.1348 67.9395 30.2898 67.9492 30.4449C67.9686 30.5999 67.988 30.749 68.0074 30.8922C67.4156 30.8325 66.8239 30.7908 66.2321 30.7669C65.6501 30.7431 65.068 30.7311 64.4859 30.7311C63.8942 30.7311 63.3024 30.7431 62.7106 30.7669C62.1189 30.7908 61.5271 30.8325 60.9354 30.8922C60.9645 30.6417 60.9839 30.4031 60.9936 30.1765C61.013 29.9499 61.0227 29.6875 61.0227 29.3893C61.0324 29.0792 61.0372 28.7094 61.0372 28.28C61.0469 27.8387 61.0518 27.2781 61.0518 26.5983V24.6481C61.0518 23.7058 61.0469 22.9306 61.0372 22.3223C61.0372 21.702 61.0324 21.1593 61.0227 20.6942C61.013 20.229 60.9984 19.7996 60.979 19.406C60.9596 19.0124 60.9354 18.5711 60.9062 18.082C61.4107 18.1297 61.9152 18.1715 62.4196 18.2073C62.9241 18.2311 63.4285 18.2431 63.933 18.2431C64.2143 18.2431 64.5344 18.2431 64.8934 18.2431C65.262 18.2311 65.6306 18.2252 65.9993 18.2252C66.3776 18.2132 66.7414 18.1953 67.0907 18.1715C67.4399 18.1476 67.7455 18.1178 68.0074 18.082C67.988 18.249 67.9686 18.41 67.9492 18.5651C67.9395 18.7082 67.9346 18.8633 67.9346 19.0303C67.9346 19.1973 67.9395 19.3642 67.9492 19.5312C67.9686 19.6982 67.988 19.8652 68.0074 20.0322C67.6388 20.0083 67.275 19.9845 66.916 19.9606C66.5571 19.9248 66.1982 19.9069 65.8392 19.9069H64.3113V23.4136C64.4277 23.4136 64.6023 23.4136 64.8352 23.4136C65.068 23.4017 65.3396 23.3898 65.6501 23.3778C65.9702 23.3659 66.3194 23.348 66.6978 23.3242C67.0761 23.3003 67.469 23.2705 67.8764 23.2347C67.857 23.4017 67.8376 23.5627 67.8182 23.7178C67.8085 23.8609 67.8037 24.016 67.8037 24.1829C67.8037 24.4931 67.8279 24.8151 67.8764 25.1491C67.5854 25.1252 67.3041 25.1073 67.0324 25.0954C66.7705 25.0715 66.4989 25.0536 66.2176 25.0417C65.9459 25.0179 65.6549 25.0059 65.3445 25.0059C65.034 24.994 64.6897 24.988 64.3113 24.988V29.0851H65.3299Z" fill="#191919"/>
<path d="M53.4832 23.9504C53.5317 23.9623 53.5753 23.9742 53.6142 23.9861C53.6627 23.9861 53.7112 23.9861 53.7597 23.9861H54.0216C54.6231 23.9861 55.0402 23.7834 55.273 23.3778C55.5156 22.9604 55.6368 22.4057 55.6368 21.714C55.6368 21.213 55.5786 20.8194 55.4622 20.5331C55.3555 20.2469 55.2197 20.0322 55.0548 19.889C54.8898 19.734 54.7055 19.6386 54.5018 19.6028C54.3078 19.567 54.1235 19.5491 53.9488 19.5491C53.8712 19.5491 53.7936 19.5551 53.716 19.567C53.6384 19.567 53.5608 19.573 53.4832 19.5849V23.9504ZM56.9901 25.3101C57.1938 25.7276 57.4121 26.1808 57.6449 26.6698C57.8875 27.1469 58.1348 27.63 58.3871 28.119C58.6393 28.608 58.8915 29.0911 59.1437 29.5682C59.396 30.0453 59.6385 30.4866 59.8713 30.8922C59.5318 30.8444 59.1922 30.8087 58.8527 30.7848C58.5132 30.749 58.1736 30.7311 57.8341 30.7311C57.5043 30.7311 57.1938 30.749 56.9028 30.7848C56.6118 30.8087 56.3062 30.8444 55.9861 30.8922C55.598 29.9618 55.2051 29.0434 54.8074 28.1369C54.4193 27.2185 53.9925 26.2941 53.5268 25.3638H53.4832C53.4832 26.151 53.488 27.0396 53.4977 28.0296C53.5171 29.0076 53.5462 29.9618 53.585 30.8922C53.3037 30.8444 53.0224 30.8087 52.7411 30.7848C52.4597 30.749 52.1687 30.7311 51.868 30.7311C51.5963 30.7311 51.3102 30.749 51.0094 30.7848C50.7184 30.8087 50.408 30.8444 50.0781 30.8922C50.1266 30.2839 50.1654 29.5622 50.1945 28.7273C50.2333 27.8805 50.2527 27.0276 50.2527 26.1689C50.2527 25.7753 50.2479 25.2862 50.2382 24.7018C50.2382 24.1054 50.2333 23.4494 50.2236 22.7338C50.2139 22.0181 50.1994 21.2667 50.18 20.4795C50.1606 19.6803 50.1363 18.8812 50.1072 18.082C50.4468 18.1417 50.7814 18.1834 51.1113 18.2073C51.4508 18.2311 51.7758 18.2431 52.0862 18.2431C52.5519 18.2431 53.0127 18.2192 53.4686 18.1715C53.9343 18.1119 54.3999 18.082 54.8656 18.082C55.3506 18.082 55.8357 18.1238 56.3207 18.2073C56.8155 18.2908 57.2569 18.4577 57.6449 18.7082C58.0427 18.9468 58.3628 19.2927 58.6053 19.7459C58.8576 20.1872 58.9837 20.7776 58.9837 21.5171C58.9837 22.4236 58.7702 23.1274 58.3434 23.6283C57.9263 24.1293 57.3684 24.4692 56.67 24.6481L56.9901 25.3101Z" fill="#191919"/>
<path d="M45.3137 21.714C45.3137 21.2488 45.27 20.879 45.1827 20.6047C45.0954 20.3184 44.979 20.0978 44.8335 19.9427C44.688 19.7877 44.5182 19.6863 44.3242 19.6386C44.1398 19.5789 43.941 19.5491 43.7276 19.5491C43.6402 19.5491 43.5529 19.5551 43.4656 19.567C43.388 19.567 43.3104 19.573 43.2328 19.5849C43.2328 20.0381 43.2279 20.4556 43.2182 20.8373C43.2182 21.207 43.2182 21.5649 43.2182 21.9108V22.9306V23.9861C43.2668 23.9981 43.3104 24.01 43.3492 24.0219C43.388 24.0219 43.4317 24.0219 43.4802 24.0219H43.7712C44.0719 24.0219 44.3193 23.9623 44.5133 23.843C44.7171 23.7237 44.8771 23.5627 44.9935 23.3599C45.1099 23.1572 45.1924 22.9127 45.2409 22.6264C45.2894 22.3401 45.3137 22.036 45.3137 21.714ZM48.6751 21.6066C48.6751 22.3342 48.5635 22.9484 48.3404 23.4494C48.1173 23.9384 47.8165 24.332 47.4382 24.6302C47.0696 24.9284 46.6427 25.1431 46.1577 25.2743C45.6823 25.3936 45.1827 25.4532 44.6588 25.4532C44.3193 25.4532 44.0331 25.4473 43.8003 25.4353C43.5675 25.4115 43.3735 25.3876 43.2182 25.3638C43.2182 25.7216 43.2182 26.1808 43.2182 26.7414C43.2279 27.2901 43.2376 27.8447 43.2473 28.4053C43.2571 28.9659 43.2716 29.4787 43.291 29.9439C43.3104 30.3972 43.3347 30.7132 43.3638 30.8922C43.0921 30.8564 42.8205 30.8206 42.5489 30.7848C42.2772 30.749 42.0056 30.7311 41.734 30.7311C41.4042 30.7311 41.0743 30.749 40.7445 30.7848C40.4244 30.8087 40.0994 30.8444 39.7695 30.8922C39.8083 30.3196 39.8423 29.7948 39.8714 29.3177C39.9005 28.8406 39.9199 28.3755 39.9296 27.9222C39.949 27.457 39.9587 26.9859 39.9587 26.5088C39.9684 26.0198 39.9733 25.483 39.9733 24.8986C39.9733 24.4573 39.9684 23.9563 39.9587 23.3957C39.9587 22.8232 39.949 22.2328 39.9296 21.6245C39.9199 21.0162 39.9053 20.4079 39.8859 19.7996C39.8665 19.1913 39.8423 18.6188 39.8132 18.082C40.1333 18.1417 40.4632 18.1834 40.8027 18.2073C41.1519 18.2311 41.4721 18.2431 41.7631 18.2431C42.2675 18.2431 42.772 18.2192 43.2765 18.1715C43.7906 18.1119 44.2854 18.082 44.7607 18.082C45.2264 18.082 45.692 18.1357 46.1577 18.2431C46.633 18.3504 47.055 18.5353 47.4236 18.7977C47.7923 19.0601 48.093 19.4179 48.3258 19.8712C48.5587 20.3244 48.6751 20.9029 48.6751 21.6066Z" fill="#191919"/>
<path d="M32.9692 27.636C32.7073 28.1727 32.4502 28.7154 32.198 29.2641C31.9458 29.8008 31.6935 30.3435 31.4413 30.8922C31.0824 30.7848 30.7234 30.7311 30.3645 30.7311C30.1899 30.7311 30.0153 30.749 29.8406 30.7848C29.6757 30.8087 29.5205 30.8444 29.375 30.8922C29.9571 29.9499 30.5246 29.0016 31.0775 28.0474C31.6305 27.0933 32.1592 26.1331 32.6636 25.167C32.4308 24.6541 32.1737 24.0935 31.8924 23.4852C31.6208 22.8769 31.3395 22.2567 31.0484 21.6245C30.7671 20.9923 30.4858 20.3721 30.2044 19.7638C29.9328 19.1436 29.6806 18.583 29.4478 18.082C30.1365 18.1894 30.8205 18.2431 31.4995 18.2431C31.8003 18.2431 32.101 18.2311 32.4017 18.2073C32.7025 18.1715 32.9983 18.1297 33.2894 18.082C33.5028 18.7261 33.7356 19.3583 33.9878 19.9785C34.2401 20.5987 34.5068 21.219 34.7882 21.8392C35.0986 21.219 35.409 20.5987 35.7195 19.9785C36.0299 19.3583 36.3112 18.7261 36.5635 18.082C36.7187 18.1178 36.8836 18.1536 37.0582 18.1894C37.2328 18.2252 37.4172 18.2431 37.6112 18.2431C37.8149 18.2431 37.9992 18.2252 38.1641 18.1894C38.329 18.1536 38.494 18.1178 38.6589 18.082C38.3776 18.5114 38.1108 18.9289 37.8585 19.3344C37.616 19.728 37.3686 20.1336 37.1164 20.551C36.8739 20.9685 36.6168 21.4158 36.3452 21.8929C36.0833 22.37 35.7922 22.9007 35.4721 23.4852C35.6176 23.8669 35.8213 24.3678 36.0833 24.988C36.3549 25.6083 36.6459 26.2703 36.9564 26.974C37.2668 27.6777 37.5821 28.3755 37.9022 29.0672C38.232 29.759 38.5279 30.3673 38.7898 30.8922C38.6734 30.8802 38.5279 30.8683 38.3533 30.8564C38.1884 30.8325 38.0138 30.8146 37.8294 30.8027C37.6451 30.7788 37.4657 30.761 37.291 30.749C37.1261 30.7371 36.9855 30.7311 36.869 30.7311C36.578 30.7311 36.253 30.749 35.8941 30.7848C35.5352 30.8087 35.2247 30.8444 34.9628 30.8922C34.7106 30.2123 34.4486 29.5384 34.177 28.8704C33.9151 28.2025 33.6386 27.5286 33.3476 26.8487L32.9692 27.636Z" fill="#191919"/>
<path d="M1 28.3684V15.2079L7.1416 13.0144C9.33504 12.137 14.2483 10.6455 16.354 15.2079C18.4597 19.7702 15.4766 22.6655 13.2832 23.5429L1 28.3684Z" fill="#F4BE00" stroke="#F4BE00"/>
<path d="M1 11.6976V2.92384C1 2.92384 4.0708 1.60766 5.38686 1.1691C6.70292 0.730534 8.72087 0.993622 9.77372 3.80121C10.8266 6.6088 8.45766 8.48053 7.1416 9.06545L1 11.6976Z" fill="#F4BE00" stroke="#F4BE00"/>
</svg>
